<svg width="76" height="76" viewBox="0 0 76 76" fill="none" xmlns="http://www.w3.org/2000/svg">
<path d="M37.65 76.01C16.89 76.01 0 59.12 0 38.36C0 17.6 16.89 0.709961 37.65 0.709961C58.41 0.709961 75.3 17.6 75.3 38.36C75.3 59.12 58.41 76.01 37.65 76.01ZM37.65 2.70996C17.99 2.70996 2 18.7 2 38.36C2 58.02 17.99 74.01 37.65 74.01C57.31 74.01 73.3 58.02 73.3 38.36C73.3 18.7 57.31 2.70996 37.65 2.70996Z" fill="url(#paint0_linear_14_90)"/>
<path d="M56.45 26.96C53.34 16.54 42.39 10.69 32.05 13.8C21.23 17.05 15.51 28.32 19.27 39.5C22.79 50.02 29.82 58.34 37.61 67.83C43.5 59.53 49.37 51.91 54.48 43.8C57.65 38.78 58.2 32.81 56.45 26.96ZM37.78 42.02C32.73 42.1 28.38 37.82 28.35 32.72C28.31 27.55 32.45 23.33 37.6 23.28C42.73 23.24 47.02 27.45 47.05 32.54C47.09 37.66 42.92 41.92 37.78 42.02Z" fill="url(#paint1_linear_14_90)"/>
<defs>
<linearGradient id="paint0_linear_14_90" x1="11.04" y1="11.75" x2="64.26" y2="64.97" gradientUnits="userSpaceOnUse">
<stop stop-color="#1C39BB"/>
<stop offset="0.12" stop-color="#2E3BAE"/>
<stop offset="0.36" stop-color="#5E438C"/>
<stop offset="0.7" stop-color="#A94E56"/>
<stop offset="0.99" stop-color="#F15A24"/>
</linearGradient>
<linearGradient id="paint1_linear_14_90" x1="21.89" y1="20.59" x2="53.37" y2="52.07" gradientUnits="userSpaceOnUse">
<stop stop-color="#1C39BB"/>
<stop offset="0.12" stop-color="#2E3BAE"/>
<stop offset="0.36" stop-color="#5E438C"/>
<stop offset="0.7" stop-color="#A94E56"/>
<stop offset="0.99" stop-color="#F15A24"/>
</linearGradient>
</defs>
</svg>
