<svg width="76" height="76" viewBox="0 0 76 76" fill="none" xmlns="http://www.w3.org/2000/svg">
<path d="M37.65 75.3C16.89 75.3 0 58.41 0 37.65C0 16.89 16.89 0 37.65 0C58.41 0 75.3 16.89 75.3 37.65C75.3 58.41 58.41 75.3 37.65 75.3ZM37.65 2C17.99 2 2 17.99 2 37.65C2 57.31 17.99 73.3 37.65 73.3C57.31 73.3 73.3 57.31 73.3 37.65C73.3 17.99 57.31 2 37.65 2Z" fill="url(#paint0_linear_14_88)"/>
<path d="M60.72 51.4601C60.56 52.2301 60.34 52.9901 60.06 53.7301C59.71 54.6501 59.01 55.3501 58.27 55.9801C57.26 56.8401 56.13 57.5301 54.94 58.1001C53.81 58.6401 52.62 58.9601 51.37 59.1401C50.44 59.2701 49.51 59.3401 48.59 59.2101C47.71 59.0901 46.83 58.8801 45.97 58.6301C44.73 58.2701 43.5 57.8801 42.29 57.4501C40.8 56.9101 39.33 56.3301 37.86 55.7401C36.07 55.0101 34.38 54.0701 32.79 52.9701C31.63 52.1701 30.51 51.3101 29.4 50.4301C27.86 49.2101 26.47 47.8301 25.13 46.4001C23.81 45.0001 22.56 43.5301 21.41 41.9801C20.66 40.9801 19.95 39.9501 19.24 38.9201C18.66 38.0901 18.09 37.2601 17.55 36.4001C16.88 35.3201 16.3 34.2001 15.84 33.0201C15.57 32.3101 15.29 31.5901 15.09 30.8501C14.78 29.7401 14.55 28.6101 14.55 27.4501C14.55 26.2801 14.55 25.1101 14.84 23.9701C15.03 23.2301 15.26 22.5001 15.54 21.7901C15.98 20.6301 16.65 19.6001 17.45 18.6601C18 18.0201 18.59 17.4101 19.22 16.8601C19.83 16.3401 20.58 16.0701 21.4 16.0501C21.9 16.0401 22.41 16.0501 22.91 16.0501C23.36 16.0501 23.81 16.0601 24.26 16.0401C24.89 16.0101 25.32 16.3201 25.68 16.7701C26.14 17.3501 26.38 18.0401 26.66 18.7001C27 19.5001 27.32 20.3201 27.65 21.1201C28.04 22.0801 28.44 23.0301 28.84 23.9901C29.22 24.8901 29.59 25.8001 29.99 26.7001C30.32 27.4401 30.21 28.1201 29.88 28.8401C29.36 29.9501 28.55 30.8401 27.77 31.7601C27.41 32.1901 27.01 32.5901 26.65 33.0301C26.26 33.5101 26.25 34.0501 26.55 34.5701C26.98 35.3101 27.44 36.0301 27.91 36.7501C28.74 38.0101 29.65 39.2101 30.67 40.3201C31.47 41.1901 32.32 42.0101 33.19 42.8101C33.84 43.4101 34.53 43.9801 35.26 44.4901C36.14 45.1201 37.06 45.7101 37.99 46.2801C39.41 47.1401 40.94 47.7601 42.45 48.4401C42.97 48.6801 43.54 48.8301 44.07 48.4601C44.39 48.2301 44.66 47.9401 44.91 47.6401C45.73 46.6701 46.54 45.6901 47.33 44.7101C47.68 44.2701 48 43.8101 48.34 43.3501C48.6 42.9901 48.94 42.7201 49.39 42.7001C49.72 42.6901 50.08 42.7301 50.39 42.8501C51.11 43.1101 51.81 43.4101 52.5 43.7401C54.08 44.4801 55.65 45.2401 57.22 46.0101C58.15 46.4601 59.08 46.9301 60 47.3901C60.17 47.4701 60.32 47.5801 60.47 47.6901C60.75 47.8801 60.88 48.1501 60.93 48.4901C61.1 49.5101 60.91 50.5001 60.71 51.4701L60.72 51.4601Z" fill="url(#paint1_linear_14_88)"/>
<defs>
<linearGradient id="paint0_linear_14_88" x1="11.04" y1="11.04" x2="64.26" y2="64.26" gradientUnits="userSpaceOnUse">
<stop stop-color="#1C39BB"/>
<stop offset="0.12" stop-color="#2E3BAE"/>
<stop offset="0.36" stop-color="#5E438C"/>
<stop offset="0.7" stop-color="#A94E56"/>
<stop offset="0.99" stop-color="#F15A24"/>
</linearGradient>
<linearGradient id="paint1_linear_14_88" x1="15.88" y1="20.1301" x2="55.03" y2="59.2701" gradientUnits="userSpaceOnUse">
<stop stop-color="#1C39BB"/>
<stop offset="0.12" stop-color="#2E3BAE"/>
<stop offset="0.36" stop-color="#5E438C"/>
<stop offset="0.7" stop-color="#A94E56"/>
<stop offset="0.99" stop-color="#F15A24"/>
</linearGradient>
</defs>
</svg>
