<svg width="28" height="22" viewBox="0 0 28 22" fill="none" xmlns="http://www.w3.org/2000/svg">
<path d="M3.10929 9.0632C3.77456 9.0632 4.31924 9.33753 4.78334 9.814C6.27092 11.3397 7.76263 12.8611 9.25256 14.3844C9.30786 14.4409 9.36785 14.4939 9.41844 14.5546C9.52314 14.6804 9.62196 14.6918 9.73195 14.5594C9.79548 14.4836 9.8696 14.4175 9.939 14.3465C14.3665 9.81821 18.7951 5.29175 23.2208 0.761686C23.8455 0.122183 24.5802 -0.129889 25.4448 0.0644289C26.3471 0.267169 27.7324 1.68214 27.9347 2.6068C28.1253 3.47792 27.8988 4.23233 27.283 4.86281C25.1284 7.06708 22.9732 9.27015 20.818 11.4738C17.6375 14.7261 14.4559 17.9771 11.2778 21.2318C10.6643 21.8605 9.94489 22.1252 9.08551 21.9465C8.652 21.8563 8.27672 21.6457 7.96438 21.3257C5.53213 18.8386 3.09694 16.3546 0.673512 13.8592C-0.222921 12.9357 -0.217627 11.5207 0.659395 10.5804C0.949971 10.2688 1.24937 9.9644 1.55759 9.67142C1.99287 9.25752 2.5152 9.05899 3.11047 9.0638L3.10929 9.0632Z" fill="url(#paint0_linear_10_151)"/>
<defs>
<linearGradient id="paint0_linear_10_151" x1="1.09237e-05" y1="11.0004" x2="28" y2="11.0004" gradientUnits="userSpaceOnUse">
<stop stop-color="#F15A24"/>
<stop offset="0.66" stop-color="#614389"/>
<stop offset="1" stop-color="#1C39BB"/>
</linearGradient>
</defs>
</svg>
